<svg width="41" height="42" viewBox="0 0 41 42" fill="none" xmlns="http://www.w3.org/2000/svg">
<path d="M19.875 16.7432C17.625 16.7432 15.832 18.5713 15.832 20.7861C15.832 23.0361 17.625 24.8291 19.875 24.8291C22.0898 24.8291 23.918 23.0361 23.918 20.7861C23.918 18.5713 22.0898 16.7432 19.875 16.7432ZM19.875 23.4229C18.4336 23.4229 17.2383 22.2627 17.2383 20.7861C17.2383 19.3447 18.3984 18.1846 19.875 18.1846C21.3164 18.1846 22.4766 19.3447 22.4766 20.7861C22.4766 22.2627 21.3164 23.4229 19.875 23.4229ZM25.0078 16.6025C25.0078 16.0752 24.5859 15.6533 24.0586 15.6533C23.5312 15.6533 23.1094 16.0752 23.1094 16.6025C23.1094 17.1299 23.5312 17.5518 24.0586 17.5518C24.5859 17.5518 25.0078 17.1299 25.0078 16.6025ZM27.6797 17.5518C27.6094 16.2861 27.3281 15.1611 26.4141 14.2471C25.5 13.333 24.375 13.0518 23.1094 12.9814C21.8086 12.9111 17.9062 12.9111 16.6055 12.9814C15.3398 13.0518 14.25 13.333 13.3008 14.2471C12.3867 15.1611 12.1055 16.2861 12.0352 17.5518C11.9648 18.8525 11.9648 22.7549 12.0352 24.0557C12.1055 25.3213 12.3867 26.4111 13.3008 27.3604C14.25 28.2744 15.3398 28.5557 16.6055 28.626C17.9062 28.6963 21.8086 28.6963 23.1094 28.626C24.375 28.5557 25.5 28.2744 26.4141 27.3604C27.3281 26.4111 27.6094 25.3213 27.6797 24.0557C27.75 22.7549 27.75 18.8525 27.6797 17.5518ZM25.9922 25.4268C25.7461 26.1299 25.1836 26.6572 24.5156 26.9385C23.4609 27.3604 21 27.2549 19.875 27.2549C18.7148 27.2549 16.2539 27.3604 15.2344 26.9385C14.5312 26.6572 14.0039 26.1299 13.7227 25.4268C13.3008 24.4072 13.4062 21.9463 13.4062 20.7861C13.4062 19.6611 13.3008 17.2002 13.7227 16.1455C14.0039 15.4775 14.5312 14.9502 15.2344 14.6689C16.2539 14.2471 18.7148 14.3525 19.875 14.3525C21 14.3525 23.4609 14.2471 24.5156 14.6689C25.1836 14.915 25.7109 15.4775 25.9922 16.1455C26.4141 17.2002 26.3086 19.6611 26.3086 20.7861C26.3086 21.9463 26.4141 24.4072 25.9922 25.4268Z" fill="#3A3A3A"/>
<circle cx="20.5" cy="21.0361" r="20" stroke="black"/>
</svg>
