<svg width="41" height="42" viewBox="0 0 41 42" fill="none" xmlns="http://www.w3.org/2000/svg">
<circle cx="20.5" cy="21.0361" r="20" stroke="#3A3A3A"/>
<path d="M16.5156 27.5361V17.0244H13.2461V27.5361H16.5156ZM14.8633 15.6182C15.918 15.6182 16.7617 14.7393 16.7617 13.6846C16.7617 12.665 15.918 11.8213 14.8633 11.8213C13.8438 11.8213 13 12.665 13 13.6846C13 14.7393 13.8438 15.6182 14.8633 15.6182ZM28.7148 27.5361H28.75V21.7705C28.75 18.958 28.1172 16.7783 24.8125 16.7783C23.2305 16.7783 22.1758 17.6572 21.7188 18.4658H21.6836V17.0244H18.5547V27.5361H21.8242V22.333C21.8242 20.9619 22.0703 19.6611 23.7578 19.6611C25.4453 19.6611 25.4805 21.208 25.4805 22.4385V27.5361H28.7148Z" fill="#3A3A3A"/>
</svg>
