<svg width="41" height="42" viewBox="0 0 41 42" fill="none" xmlns="http://www.w3.org/2000/svg">
<path d="M27.3125 14.0361H12.6875C11.7383 14.0361 11 14.8096 11 15.7236V25.8486C11 26.7979 11.7383 27.5361 12.6875 27.5361H27.3125C28.2266 27.5361 29 26.7979 29 25.8486V15.7236C29 14.8096 28.2266 14.0361 27.3125 14.0361ZM27.3125 15.7236V17.165C26.5039 17.833 25.2383 18.8174 22.5664 20.9268C21.9688 21.3838 20.8086 22.5088 20 22.4736C19.1562 22.5088 17.9961 21.3838 17.3984 20.9268C14.7266 18.8174 13.4609 17.833 12.6875 17.165V15.7236H27.3125ZM12.6875 25.8486V19.3447C13.4609 19.9775 14.6211 20.8916 16.3438 22.2627C17.1172 22.8604 18.4883 24.1963 20 24.1611C21.4766 24.1963 22.8125 22.8604 23.6211 22.2627C25.3438 20.8916 26.5039 19.9775 27.3125 19.3447V25.8486H12.6875Z" fill="#3A3A3A"/>
<circle cx="20.5" cy="21.0361" r="20" stroke="#3A3A3A"/>
</svg>
