<svg width="1136" height="178" viewBox="0 0 1136 178" fill="none" xmlns="http://www.w3.org/2000/svg">
<path d="M118.5 0.749993V19.25H71V175H48.25V19.25H0.5V0.749993H118.5ZM179.254 60.25C183.254 52.4167 188.921 46.3333 196.254 42C203.754 37.6667 212.837 35.5 223.504 35.5V59H217.504C192.004 59 179.254 72.8333 179.254 100.5V175H156.504V38H179.254V60.25ZM384.766 101.25C384.766 105.583 384.516 110.167 384.016 115H274.516C275.349 128.5 279.932 139.083 288.266 146.75C296.766 154.25 307.016 158 319.016 158C328.849 158 337.016 155.75 343.516 151.25C350.182 146.583 354.849 140.417 357.516 132.75H382.016C378.349 145.917 371.016 156.667 360.016 165C349.016 173.167 335.349 177.25 319.016 177.25C306.016 177.25 294.349 174.333 284.016 168.5C273.849 162.667 265.849 154.417 260.016 143.75C254.182 132.917 251.266 120.417 251.266 106.25C251.266 92.0833 254.099 79.6667 259.766 69C265.432 58.3333 273.349 50.1667 283.516 44.5C293.849 38.6667 305.682 35.75 319.016 35.75C332.016 35.75 343.516 38.5833 353.516 44.25C363.516 49.9167 371.182 57.75 376.516 67.75C382.016 77.5833 384.766 88.75 384.766 101.25ZM361.266 96.5C361.266 87.8333 359.349 80.4167 355.516 74.25C351.682 67.9167 346.432 63.1667 339.766 60C333.266 56.6667 326.016 55 318.016 55C306.516 55 296.682 58.6667 288.516 66C280.516 73.3333 275.932 83.5 274.766 96.5H361.266ZM416.295 106C416.295 92 419.128 79.75 424.795 69.25C430.462 58.5833 438.212 50.3333 448.045 44.5C458.045 38.6667 469.128 35.75 481.295 35.75C493.295 35.75 503.712 38.3333 512.545 43.5C521.378 48.6667 527.962 55.1667 532.295 63V38H555.295V175H532.295V149.5C527.795 157.5 521.045 164.167 512.045 169.5C503.212 174.667 492.878 177.25 481.045 177.25C468.878 177.25 457.878 174.25 448.045 168.25C438.212 162.25 430.462 153.833 424.795 143C419.128 132.167 416.295 119.833 416.295 106ZM532.295 106.25C532.295 95.9167 530.212 86.9167 526.045 79.25C521.878 71.5833 516.212 65.75 509.045 61.75C502.045 57.5833 494.295 55.5 485.795 55.5C477.295 55.5 469.545 57.5 462.545 61.5C455.545 65.5 449.962 71.3333 445.795 79C441.628 86.6667 439.545 95.6667 439.545 106C439.545 116.5 441.628 125.667 445.795 133.5C449.962 141.167 455.545 147.083 462.545 151.25C469.545 155.25 477.295 157.25 485.795 157.25C494.295 157.25 502.045 155.25 509.045 151.25C516.212 147.083 521.878 141.167 526.045 133.5C530.212 125.667 532.295 116.583 532.295 106.25ZM631.49 56.75V137.5C631.49 144.167 632.907 148.917 635.74 151.75C638.574 154.417 643.49 155.75 650.49 155.75H667.24V175H646.74C634.074 175 624.574 172.083 618.24 166.25C611.907 160.417 608.74 150.833 608.74 137.5V56.75H590.99V38H608.74V3.49999H631.49V38H667.24V56.75H631.49ZM880.355 0.749993V111C880.355 126.5 884.105 138 891.605 145.5C899.272 153 909.855 156.75 923.355 156.75C936.689 156.75 947.105 153 954.605 145.5C962.272 138 966.105 126.5 966.105 111V0.749993H988.855V110.75C988.855 125.25 985.939 137.5 980.105 147.5C974.272 157.333 966.355 164.667 956.355 169.5C946.522 174.333 935.439 176.75 923.105 176.75C910.772 176.75 899.605 174.333 889.605 169.5C879.772 164.667 871.939 157.333 866.105 147.5C860.439 137.5 857.605 125.25 857.605 110.75V0.749993H880.355ZM1085.31 177.25C1074.81 177.25 1065.39 175.5 1057.06 172C1048.72 168.333 1042.14 163.333 1037.31 157C1032.47 150.5 1029.81 143.083 1029.31 134.75H1052.81C1053.47 141.583 1056.64 147.167 1062.31 151.5C1068.14 155.833 1075.72 158 1085.06 158C1093.72 158 1100.56 156.083 1105.56 152.25C1110.56 148.417 1113.06 143.583 1113.06 137.75C1113.06 131.75 1110.39 127.333 1105.06 124.5C1099.72 121.5 1091.47 118.583 1080.31 115.75C1070.14 113.083 1061.81 110.417 1055.31 107.75C1048.97 104.917 1043.47 100.833 1038.81 95.5C1034.31 90 1032.06 82.8333 1032.06 74C1032.06 67 1034.14 60.5833 1038.31 54.75C1042.47 48.9167 1048.39 44.3333 1056.06 41C1063.72 37.5 1072.47 35.75 1082.31 35.75C1097.47 35.75 1109.72 39.5833 1119.06 47.25C1128.39 54.9167 1133.39 65.4167 1134.06 78.75H1111.31C1110.81 71.5833 1107.89 65.8333 1102.56 61.5C1097.39 57.1667 1090.39 55 1081.56 55C1073.39 55 1066.89 56.75 1062.06 60.25C1057.22 63.75 1054.81 68.3333 1054.81 74C1054.81 78.5 1056.22 82.25 1059.06 85.25C1062.06 88.0833 1065.72 90.4167 1070.06 92.25C1074.56 93.9167 1080.72 95.8333 1088.56 98C1098.39 100.667 1106.39 103.333 1112.56 106C1118.72 108.5 1123.97 112.333 1128.31 117.5C1132.81 122.667 1135.14 129.417 1135.31 137.75C1135.31 145.25 1133.22 152 1129.06 158C1124.89 164 1118.97 168.75 1111.31 172.25C1103.81 175.583 1095.14 177.25 1085.31 177.25Z" fill="url(#paint0_linear)"/>
<defs>
<linearGradient id="paint0_linear" x1="570.5" y1="-100" x2="570.5" y2="275" gradientUnits="userSpaceOnUse">
<stop stop-color="#D2F3FF"/>
<stop offset="1" stop-color="#F3F3F3" stop-opacity="0"/>
</linearGradient>
</defs>
</svg>
